<mxfile host="65bd71144e">
    <diagram id="e1pPeA3sLvwS0C6hpyEI" name="第 1 页">
        <mxGraphModel dx="1020" dy="906" grid="1" gridSize="10" guides="0" tooltips="1" connect="1" arrows="1" fold="1" page="0" pageScale="1" pageWidth="827" pageHeight="1169" math="0" shadow="0">
            <root>
                <mxCell id="0"/>
                <mxCell id="1" parent="0"/>
                <mxCell id="2" value="webpack.base.config" style="rounded=0;whiteSpace=wrap;html=1;" parent="1" vertex="1">
                    <mxGeometry x="11" y="338" width="120" height="60" as="geometry"/>
                </mxCell>
                <mxCell id="3" value="" style="strokeWidth=2;html=1;shape=mxgraph.flowchart.annotation_2;align=left;labelPosition=right;pointerEvents=1;" parent="1" vertex="1">
                    <mxGeometry x="131" y="318" width="250" height="100" as="geometry"/>
                </mxCell>
                <mxCell id="4" value="1.多端环境本地运行" style="rounded=0;whiteSpace=wrap;html=1;" parent="1" vertex="1">
                    <mxGeometry x="381" y="278" width="210" height="60" as="geometry"/>
                </mxCell>
                <mxCell id="5" value="2.直接运行webpack，独立输出打包后的组件库" style="rounded=0;whiteSpace=wrap;html=1;" parent="1" vertex="1">
                    <mxGeometry x="381" y="388" width="210" height="60" as="geometry"/>
                </mxCell>
                <mxCell id="7" value="独立的webpack配置" style="text;html=1;strokeColor=none;fillColor=none;align=center;verticalAlign=middle;whiteSpace=wrap;rounded=0;" parent="1" vertex="1">
                    <mxGeometry x="11" y="288" width="120" height="50" as="geometry"/>
                </mxCell>
                <mxCell id="8" value="merge Taro本身webpack手脚架设置" style="text;html=1;strokeColor=none;fillColor=none;align=center;verticalAlign=middle;whiteSpace=wrap;rounded=0;" parent="1" vertex="1">
                    <mxGeometry x="381" y="228" width="210" height="50" as="geometry"/>
                </mxCell>
                <mxCell id="10" value="单独运行webpack配置" style="text;html=1;strokeColor=none;fillColor=none;align=center;verticalAlign=middle;whiteSpace=wrap;rounded=0;" parent="1" vertex="1">
                    <mxGeometry x="381" y="448" width="210" height="50" as="geometry"/>
                </mxCell>
                <mxCell id="11" value="" style="curved=1;endArrow=classic;html=1;exitX=1;exitY=0.5;exitDx=0;exitDy=0;entryX=1;entryY=0.25;entryDx=0;entryDy=0;" parent="1" source="5" target="4" edge="1">
                    <mxGeometry width="50" height="50" relative="1" as="geometry">
                        <mxPoint x="661" y="393" as="sourcePoint"/>
                        <mxPoint x="711" y="343" as="targetPoint"/>
                        <Array as="points">
                            <mxPoint x="711" y="393"/>
                            <mxPoint x="701" y="358"/>
                        </Array>
                    </mxGeometry>
                </mxCell>
                <mxCell id="12" value="独立的webpack配置会混合在原本的多端配置里" style="text;html=1;strokeColor=none;fillColor=none;align=center;verticalAlign=middle;whiteSpace=wrap;rounded=0;" parent="1" vertex="1">
                    <mxGeometry x="711" y="358" width="140" height="40" as="geometry"/>
                </mxCell>
                <mxCell id="15" style="edgeStyle=none;html=1;exitX=1;exitY=0.5;exitDx=0;exitDy=0;entryX=0.008;entryY=0.625;entryDx=0;entryDy=0;entryPerimeter=0;" parent="1" source="13" target="14" edge="1">
                    <mxGeometry relative="1" as="geometry"/>
                </mxCell>
                <mxCell id="13" value="项目A" style="rounded=0;whiteSpace=wrap;html=1;" parent="1" vertex="1">
                    <mxGeometry x="64" y="756" width="120" height="60" as="geometry"/>
                </mxCell>
                <mxCell id="14" value="全局node_module" style="ellipse;whiteSpace=wrap;html=1;" parent="1" vertex="1">
                    <mxGeometry x="371" y="650" width="120" height="80" as="geometry"/>
                </mxCell>
                <mxCell id="16" value="yarn link" style="text;html=1;strokeColor=none;fillColor=none;align=center;verticalAlign=middle;whiteSpace=wrap;rounded=0;" parent="1" vertex="1">
                    <mxGeometry x="227" y="701" width="60" height="30" as="geometry"/>
                </mxCell>
                <mxCell id="19" style="edgeStyle=none;html=1;" parent="1" source="17" edge="1">
                    <mxGeometry relative="1" as="geometry">
                        <mxPoint x="493" y="702" as="targetPoint"/>
                    </mxGeometry>
                </mxCell>
                <mxCell id="17" value="项目B" style="rounded=0;whiteSpace=wrap;html=1;" parent="1" vertex="1">
                    <mxGeometry x="651" y="763" width="120" height="60" as="geometry"/>
                </mxCell>
                <mxCell id="18" value="yarn link 项目A" style="text;html=1;strokeColor=none;fillColor=none;align=center;verticalAlign=middle;whiteSpace=wrap;rounded=0;" parent="1" vertex="1">
                    <mxGeometry x="564" y="700" width="92" height="30" as="geometry"/>
                </mxCell>
                <mxCell id="20" value="设置 webpack 实时构建&lt;br&gt;{ watch: true }" style="text;html=1;strokeColor=none;fillColor=none;align=center;verticalAlign=middle;whiteSpace=wrap;rounded=0;" parent="1" vertex="1">
                    <mxGeometry x="41" y="825" width="153" height="30" as="geometry"/>
                </mxCell>
                <mxCell id="21" value="查看组件在项目B中实际效果" style="text;html=1;strokeColor=none;fillColor=none;align=center;verticalAlign=middle;whiteSpace=wrap;rounded=0;" parent="1" vertex="1">
                    <mxGeometry x="634" y="829" width="167" height="30" as="geometry"/>
                </mxCell>
                <mxCell id="24" style="edgeStyle=none;html=1;exitX=1;exitY=0.5;exitDx=0;exitDy=0;entryX=0.008;entryY=0.625;entryDx=0;entryDy=0;entryPerimeter=0;" parent="1" source="25" target="26" edge="1">
                    <mxGeometry relative="1" as="geometry"/>
                </mxCell>
                <mxCell id="25" value="项目A" style="rounded=0;whiteSpace=wrap;html=1;" parent="1" vertex="1">
                    <mxGeometry x="55" y="1024" width="120" height="60" as="geometry"/>
                </mxCell>
                <mxCell id="26" value="npm.org 云端" style="ellipse;whiteSpace=wrap;html=1;" parent="1" vertex="1">
                    <mxGeometry x="365" y="916" width="120" height="80" as="geometry"/>
                </mxCell>
                <mxCell id="27" value="npm pulish" style="text;html=1;strokeColor=none;fillColor=none;align=center;verticalAlign=middle;whiteSpace=wrap;rounded=0;" parent="1" vertex="1">
                    <mxGeometry x="173" y="967" width="108" height="30" as="geometry"/>
                </mxCell>
                <mxCell id="28" style="edgeStyle=none;html=1;" parent="1" source="29" edge="1">
                    <mxGeometry relative="1" as="geometry">
                        <mxPoint x="487" y="968" as="targetPoint"/>
                    </mxGeometry>
                </mxCell>
                <mxCell id="29" value="项目B" style="rounded=0;whiteSpace=wrap;html=1;" parent="1" vertex="1">
                    <mxGeometry x="645" y="1029" width="120" height="60" as="geometry"/>
                </mxCell>
                <mxCell id="30" value="npm add '项目A'" style="text;html=1;strokeColor=none;fillColor=none;align=center;verticalAlign=middle;whiteSpace=wrap;rounded=0;" parent="1" vertex="1">
                    <mxGeometry x="558" y="966" width="92" height="30" as="geometry"/>
                </mxCell>
                <mxCell id="40" style="edgeStyle=none;html=1;entryX=0;entryY=0.5;entryDx=0;entryDy=0;" edge="1" parent="1" source="31" target="34">
                    <mxGeometry relative="1" as="geometry">
                        <mxPoint x="329" y="62" as="targetPoint"/>
                    </mxGeometry>
                </mxCell>
                <mxCell id="31" value="webpack.base.config" style="rounded=0;whiteSpace=wrap;html=1;" vertex="1" parent="1">
                    <mxGeometry x="2" y="40" width="198" height="60" as="geometry"/>
                </mxCell>
                <mxCell id="41" style="edgeStyle=none;html=1;" edge="1" parent="1" source="34" target="36">
                    <mxGeometry relative="1" as="geometry"/>
                </mxCell>
                <mxCell id="34" value="2.直接运行webpack，独立输出打包后的组件库" style="rounded=0;whiteSpace=wrap;html=1;" vertex="1" parent="1">
                    <mxGeometry x="330" y="40" width="210" height="60" as="geometry"/>
                </mxCell>
                <mxCell id="35" value="独立的webpack配置" style="text;html=1;strokeColor=none;fillColor=none;align=center;verticalAlign=middle;whiteSpace=wrap;rounded=0;" vertex="1" parent="1">
                    <mxGeometry x="40" y="-10" width="120" height="50" as="geometry"/>
                </mxCell>
                <mxCell id="36" value="单独运行webpack配置&lt;br&gt;&lt;div style=&quot;color: rgb(238, 255, 255); background-color: rgb(33, 33, 33); font-family: Menlo, Monaco, &amp;quot;Courier New&amp;quot;, monospace; font-size: 14px; line-height: 21px;&quot;&gt;&lt;span style=&quot;color: #c3e88d;&quot;&gt;webpack --config config/webpack-config/base.config.ts&lt;/span&gt;&lt;/div&gt;" style="text;html=1;strokeColor=none;fillColor=none;align=center;verticalAlign=middle;whiteSpace=wrap;rounded=0;" vertex="1" parent="1">
                    <mxGeometry x="680" y="40" width="353" height="50" as="geometry"/>
                </mxCell>
            </root>
        </mxGraphModel>
    </diagram>
</mxfile>